<?xml version="1.0" encoding="utf-8"?>
<!-- Generator: Adobe Illustrator 24.3.0, SVG Export Plug-In . SVG Version: 6.00 Build 0)  -->
<svg version="1.1" id="Layer_1" xmlns="http://www.w3.org/2000/svg" xmlns:xlink="http://www.w3.org/1999/xlink" x="0px" y="0px"
	 viewBox="0 0 1275.29 266.54" style="enable-background:new 0 0 1275.29 266.54;" xml:space="preserve">
<g>
	<g>
		<path style="fill:#0073E6;" d="M342.44,155.82h73.72c3.99,0,6.07-1.56,6.07-4.86v-18.91c0-3.3-2.08-4.86-6.07-4.86h-44.23
			c-19.6,0-29.49-7.81-29.49-23.59V85.74c0-15.79,9.89-23.59,29.49-23.59h76.32v20.82H383.2c-3.99,0-6.07,1.56-6.07,4.86v13.7
			c0,3.3,2.08,4.86,6.07,4.86h44.23c19.6,0,29.49,7.81,29.49,23.59v23.07c0,15.79-9.89,23.59-29.49,23.59h-85V155.82z"/>
		<g>
			<path style="fill:#0073E6;" d="M474.27,112.45c0-13.88,8.67-20.82,26.02-20.82h62.45v18.21h-52.91c-2.95,0-4.34,1.21-4.34,3.47
				v41.63c0,2.26,1.39,3.47,4.34,3.47h52.91v18.21h-62.45c-17.35,0-26.02-6.94-26.02-20.82V112.45z"/>
			<path style="fill:#0073E6;" d="M574.88,144.54c0-13.88,8.67-20.82,26.02-20.82h36.43v-10.41c0-2.26-1.39-3.47-4.34-3.47h-51.17
				V91.64h60.71c17.35,0,26.02,6.94,26.02,20.82v64.18H600.9c-17.35,0-26.02-6.94-26.02-20.82V144.54z M610.44,158.42h26.89v-16.48
				h-26.89c-2.95,0-4.34,1.21-4.34,3.47v9.54C606.1,157.21,607.49,158.42,610.44,158.42z"/>
			<path style="fill:#0073E6;" d="M685.9,62.15h31.22v114.49H685.9V62.15z"/>
			<path style="fill:#0073E6;" d="M734.47,62.15h31.22V79.5h-31.22V62.15z M734.47,91.64h31.22v85h-31.22V91.64z"/>
			<path style="fill:#0073E6;" d="M783.04,112.45c0-13.88,8.67-20.82,26.02-20.82h41.63c17.35,0,26.02,6.94,26.02,20.82v29.49
				h-62.45v13.01c0,2.26,1.39,3.47,4.34,3.47h54.64v18.21h-64.18c-17.35,0-26.02-6.94-26.02-20.82V112.45z M845.48,123.73v-10.41
				c0-2.26-1.39-3.47-4.34-3.47H818.6c-2.95,0-4.34,1.21-4.34,3.47v10.41H845.48z"/>
			<path style="fill:#0073E6;" d="M894.05,91.64h71.12c17.35,0,26.02,6.94,26.02,20.82v64.18h-31.22v-63.31
				c0-2.26-1.39-3.47-4.34-3.47h-30.36v66.78h-31.22V91.64z"/>
			<path style="fill:#0073E6;" d="M1008.54,62.15h31.22v29.49h29.49v18.21h-29.49v45.1c0,2.26,1.39,3.47,4.34,3.47h25.15v18.21
				h-34.69c-17.35,0-26.02-6.94-26.02-20.82V62.15z"/>
			<path style="fill:#FF6600;" d="M1100.09,62.15h34.69v114.49h-34.69V62.15z"/>
			<path style="fill:#FF6600;" d="M1155.6,85.74c0-15.79,9.89-23.59,29.49-23.59h60.71c19.6,0,29.49,7.81,29.49,23.59v67.3
				c0,15.79-9.89,23.59-29.49,23.59h-4.68l12.14,27.75h-35.21l-12.14-27.75h-20.82c-19.6,0-29.49-7.81-29.49-23.59V85.74z
				 M1196.36,155.82h38.16c3.99,0,6.07-1.56,6.07-4.86V87.82c0-3.3-2.08-4.86-6.07-4.86h-38.16c-3.99,0-6.07,1.56-6.07,4.86v63.14
				C1190.29,154.26,1192.37,155.82,1196.36,155.82z"/>
		</g>
	</g>
	<g>
		<polygon style="fill:#0073E6;" points="91.51,266.54 78.46,266.54 0,130.65 4.33,123.14 44.05,131.74 91.32,214 		"/>
		<g>
			<polygon style="fill:#0073E6;" points="138.96,197.18 125.71,266.54 104.3,266.54 104.07,202.41 56.8,120.15 11.7,110.39 
				11.63,110.38 19.7,96.36 19.79,96.37 83.21,107.18 			"/>
			<polygon style="fill:#0073E6;" points="192.93,179.18 151.8,266.54 134.83,266.54 143.23,239.54 144.38,235.16 156.36,190.24 
				139.23,160.54 128.49,141.94 100.6,93.61 28.36,81.54 37.29,66.07 137.09,82.44 159.62,121.47 165.01,130.8 			"/>
			<polygon style="fill:#0073E6;" points="244.75,160.35 190.43,266.54 165.65,266.54 206.9,177.19 185.78,140.59 172.54,117.66 
				138.19,58.12 45.38,52.06 56.31,33.12 175.98,41.22 203.73,89.28 210.37,100.78 			"/>
			<polygon style="fill:#0073E6;" points="296.56,141.52 252.07,218.59 250.45,221.45 224.74,266.54 199.01,266.54 215.98,236.4 
				219.63,229.95 226.02,218.59 230.41,210.97 234.98,203.07 257.44,164.13 216.61,93.37 175.77,22.61 62.39,22.61 75.43,0 
				214.88,0 255.71,70.76 			"/>
		</g>
	</g>
</g>
<g>
</g>
<g>
</g>
<g>
</g>
<g>
</g>
<g>
</g>
<g>
</g>
<g>
</g>
<g>
</g>
<g>
</g>
<g>
</g>
<g>
</g>
<g>
</g>
<g>
</g>
<g>
</g>
<g>
</g>
</svg>
