<?xml version="1.0" encoding="utf-8"?>
<!-- Generator: Adobe Illustrator 24.3.0, SVG Export Plug-In . SVG Version: 6.00 Build 0)  -->
<svg version="1.1" id="Layer_1" xmlns="http://www.w3.org/2000/svg" xmlns:xlink="http://www.w3.org/1999/xlink" x="0px" y="0px"
	 viewBox="0 0 1109.76 544.55" style="enable-background:new 0 0 1109.76 544.55;" xml:space="preserve">
<g>
	<g>
		<polygon style="fill:#2563EB;" points="487.35,317.09 471.82,317.09 378.48,155.43 383.64,146.49 430.89,156.73 487.12,254.59 		
			"/>
		<g>
			<polygon style="fill:#2563EB;" points="543.79,234.58 528.03,317.09 502.57,317.09 502.29,240.8 446.06,142.94 392.4,131.32 
				392.32,131.31 401.92,114.63 402.02,114.65 477.48,127.51 			"/>
			<polygon style="fill:#2563EB;" points="608.01,213.16 559.07,317.09 538.88,317.09 548.88,284.97 550.25,279.76 564.49,226.32 
				544.11,190.98 531.34,168.86 498.17,111.36 412.22,97 422.84,78.6 541.58,98.07 568.37,144.5 574.79,155.61 			"/>
			<polygon style="fill:#2563EB;" points="669.64,190.76 605.02,317.09 575.55,317.09 624.62,210.79 599.49,167.25 583.75,139.97 
				542.88,69.14 432.46,61.94 445.47,39.4 587.84,49.04 620.84,106.21 628.75,119.89 			"/>
			<polygon style="fill:#2563EB;" points="731.28,168.35 678.36,260.04 676.43,263.44 645.84,317.09 615.23,317.09 635.43,281.23 
				639.76,273.56 647.37,260.04 652.59,250.98 658.03,241.58 684.75,195.25 636.17,111.08 587.59,26.9 452.7,26.9 468.22,0 
				634.11,0 682.69,84.18 			"/>
		</g>
	</g>
	<g>
		<path style="fill:#2563EB;" d="M0,486.76h87.7c4.75,0,7.22-1.86,7.22-5.78v-22.49c0-3.92-2.48-5.78-7.22-5.78H35.08
			C11.76,452.72,0,443.43,0,424.65V403.4c0-18.78,11.76-28.06,35.08-28.06h90.8v24.76H48.49c-4.75,0-7.22,1.86-7.22,5.78v16.3
			c0,3.92,2.48,5.78,7.22,5.78h52.62c23.32,0,35.08,9.29,35.08,28.06v27.45c0,18.78-11.76,28.06-35.08,28.06H0V486.76z"/>
		<path style="fill:#2563EB;" d="M156.84,435.17c0-16.51,10.32-24.76,30.95-24.76h74.29v21.67h-62.94c-3.51,0-5.16,1.44-5.16,4.13
			v49.53c0,2.68,1.65,4.13,5.16,4.13h62.94v21.67h-74.29c-20.64,0-30.95-8.25-30.95-24.76V435.17z"/>
		<path style="fill:#2563EB;" d="M276.53,473.35c0-16.51,10.32-24.76,30.95-24.76h43.34v-12.38c0-2.68-1.65-4.13-5.16-4.13h-60.88
			v-21.67h72.23c20.64,0,30.95,8.25,30.95,24.76v76.35h-80.48c-20.64,0-30.95-8.25-30.95-24.76V473.35z M318.83,489.86h31.99v-19.6
			h-31.99c-3.51,0-5.16,1.44-5.16,4.13v11.35C313.67,488.42,315.32,489.86,318.83,489.86z"/>
		<path style="fill:#2563EB;" d="M408.6,375.33h37.14v136.2H408.6V375.33z"/>
		<path style="fill:#2563EB;" d="M466.38,375.33h37.14v20.64h-37.14V375.33z M466.38,410.41h37.14v101.12h-37.14V410.41z"/>
		<path style="fill:#2563EB;" d="M524.16,435.17c0-16.51,10.32-24.76,30.95-24.76h49.53c20.64,0,30.95,8.25,30.95,24.76v35.08
			h-74.29v15.48c0,2.68,1.65,4.13,5.16,4.13h65v21.67h-76.35c-20.64,0-30.95-8.25-30.95-24.76V435.17z M598.45,448.59v-12.38
			c0-2.68-1.65-4.13-5.16-4.13h-26.83c-3.51,0-5.16,1.44-5.16,4.13v12.38H598.45z"/>
		<path style="fill:#2563EB;" d="M656.23,410.41h84.61c20.64,0,30.95,8.25,30.95,24.76v76.35h-37.14v-75.32
			c0-2.68-1.65-4.13-5.16-4.13h-36.11v79.45h-37.14V410.41z"/>
		<path style="fill:#2563EB;" d="M792.43,375.33h37.14v35.08h35.08v21.67h-35.08v53.65c0,2.68,1.65,4.13,5.16,4.13h29.92v21.67
			h-41.27c-20.64,0-30.95-8.25-30.95-24.76V375.33z"/>
		<path style="fill:#F97316;" d="M901.34,375.33h41.27v136.2h-41.27V375.33z"/>
		<path style="fill:#F97316;" d="M967.38,403.4c0-18.78,11.76-28.06,35.08-28.06h72.23c23.32,0,35.08,9.29,35.08,28.06v80.07
			c0,18.78-11.76,28.06-35.08,28.06h-5.57l14.45,33.02h-41.89l-14.45-33.02h-24.76c-23.32,0-35.08-9.29-35.08-28.06V403.4z
			 M1015.87,486.76h45.4c4.75,0,7.22-1.86,7.22-5.78v-75.11c0-3.92-2.48-5.78-7.22-5.78h-45.4c-4.75,0-7.22,1.86-7.22,5.78v75.11
			C1008.65,484.91,1011.13,486.76,1015.87,486.76z"/>
	</g>
</g>
<g>
</g>
<g>
</g>
<g>
</g>
<g>
</g>
<g>
</g>
<g>
</g>
<g>
</g>
<g>
</g>
<g>
</g>
<g>
</g>
<g>
</g>
<g>
</g>
<g>
</g>
<g>
</g>
<g>
</g>
</svg>
