<?xml version="1.0" encoding="UTF-8"?><svg id="Layer_1" xmlns="http://www.w3.org/2000/svg" xmlns:xlink="http://www.w3.org/1999/xlink" viewBox="0 0 721.6 200"><defs><style>.cls-1{fill:url(#linear-gradient);}.cls-2{fill:#fff;}.cls-3{fill:#0a0a0a;}.cls-4{fill:url(#linear-gradient-2);}</style><linearGradient id="linear-gradient" x1="29.29" y1="29.29" x2="170.71" y2="170.71" gradientUnits="userSpaceOnUse"><stop offset="0" stop-color="#f0759a"/><stop offset=".05" stop-color="#ee668f"/><stop offset=".18" stop-color="#ea4476"/><stop offset=".3" stop-color="#e82c65"/><stop offset=".41" stop-color="#e61e5a"/><stop offset=".5" stop-color="#e61957"/><stop offset=".69" stop-color="#e01854"/><stop offset=".92" stop-color="#d1164e"/><stop offset="1" stop-color="#ca164c"/></linearGradient><linearGradient id="linear-gradient-2" x1="72.88" y1="75.33" x2="169.48" y2="171.93" gradientUnits="userSpaceOnUse"><stop offset="0" stop-color="#ca164c"/><stop offset="1" stop-color="#ca164c" stop-opacity="0"/></linearGradient></defs><g id="Group_153"><g id="Group_152"><path id="Path_371" class="cls-3" d="M319.08,145.66h-12.66c-.6,0-1.16-.27-1.54-.72l-35.28-42.62v41.35c0,1.1-.9,2-2,2h-10.95c-1.1,0-2-.9-2-2V56.66c0-1.1,.9-2,2-2h10.95c1.1,0,2,.9,2,2v38.86l33.98-40.15c.38-.45,.94-.71,1.53-.71h12.63c1.1,0,2,.9,2,2,0,.47-.16,.92-.46,1.28l-34.07,41.06,35.43,43.4c.7,.85,.58,2.11-.28,2.81-.36,.29-.81,.46-1.27,.45Z"/><path id="Path_372" class="cls-3" d="M337.21,119.14c.81,4.58,3.38,8.66,7.15,11.37,4.02,2.73,8.8,4.12,13.65,3.97,6.8,0,12.06-2.24,15.76-6.72,.62-.75,1.7-.94,2.54-.45l8.14,4.75c.96,.55,1.28,1.78,.73,2.73-.04,.08-.09,.15-.15,.22-6.37,8.23-15.42,12.34-27.14,12.34-10.58,0-19.11-3.23-25.61-9.69-6.5-6.46-9.75-14.63-9.75-24.51,0-9.71,3.21-17.83,9.62-24.38,6.41-6.55,14.65-9.82,24.7-9.82,9.53,0,17.36,3.34,23.47,10.01,6.09,6.61,9.37,15.33,9.16,24.31-.02,1.37-.11,2.73-.29,4.09-.12,1.01-.97,1.76-1.99,1.76h-49.99Zm-.13-11.44h38.22c-.96-5.29-3.14-9.27-6.57-11.96-3.43-2.69-7.67-4.11-12.03-4.03-4.71-.17-9.32,1.36-13,4.29-3.54,2.98-5.89,7.13-6.63,11.7h0Z"/><path id="Path_373" class="cls-3" d="M444.45,80.66h10.66c1.1,0,2,.89,2,2,0,.24-.04,.48-.13,.7l-23.96,64.39c-5.95,16.05-15.86,24.04-29.71,23.98-1.11,0-2.01-.9-2.01-2.01v-9.16c0-1.1,.89-1.98,1.98-2,3.13,.04,6.18-.96,8.68-2.83,2.69-2.12,4.9-5.44,6.63-9.95l.65-1.3-26.36-61.04c-.44-1.01,.03-2.19,1.04-2.63,.25-.11,.52-.16,.79-.16h10.96c.81,0,1.54,.49,1.85,1.24l18.87,45.95,16.16-45.85c.28-.8,1.04-1.34,1.89-1.34Z"/><path id="Path_374" class="cls-3" d="M506.41,78.97c8.7-.1,17.02,3.52,22.88,9.95,6.27,6.49,9.69,15.22,9.49,24.25,0,9.62-3.16,17.72-9.49,24.31-5.88,6.39-14.2,9.99-22.88,9.88-9.88,0-17.47-3.64-22.75-10.92v33.23c0,1.1-.9,2-2,2h-10.04c-1.1,0-2-.9-2-2V82.66c0-1.1,.9-2,2-2h10.04c1.1,0,2,.9,2,2v7.36c5.28-7.37,12.87-11.05,22.75-11.05Zm-16.9,49.08c8.21,7.89,21.18,7.89,29.38,0,7.8-8.39,7.8-21.38,0-29.77-8.21-7.89-21.18-7.89-29.38,0-7.8,8.39-7.8,21.38,0,29.77Z"/><path id="Path_375" class="cls-3" d="M551.52,143.66V56.66c0-1.1,.9-2,2-2h10.04c1.1,0,2,.9,2,2v87.01c0,1.1-.9,2-2,2h-10.04c-1.1,0-2-.9-2-2Z"/><path id="Path_376" class="cls-3" d="M635.3,80.66h10.04c1.1,0,2,.9,2,2v61.01c0,1.1-.9,2-2,2h-10.04c-1.1,0-2-.9-2-2v-7.36c-5.29,7.37-12.87,11.05-22.75,11.05-8.7,.1-17.02-3.52-22.88-9.95-6.27-6.49-9.69-15.22-9.49-24.25,0-9.62,3.16-17.72,9.49-24.31,5.88-6.39,14.2-9.99,22.88-9.88,9.88,0,17.46,3.64,22.75,10.92v-7.23c0-1.1,.9-2,2-2Zm-37.23,47.39c8.21,7.89,21.18,7.89,29.38,0,7.8-8.39,7.8-21.38,0-29.77-8.21-7.89-21.18-7.89-29.38,0-7.8,8.39-7.8,21.38,0,29.77Z"/><path id="Path_377" class="cls-3" d="M708.94,80.66h10.65c1.1,0,2,.89,2,2,0,.24-.04,.48-.13,.7l-23.96,64.39c-5.96,16.05-15.86,24.04-29.71,23.98-1.11,0-2.01-.9-2.02-2.01v-9.16c0-1.1,.89-1.98,1.98-2,3.13,.04,6.18-.96,8.68-2.83,2.68-2.12,4.89-5.44,6.63-9.95l.65-1.3-26.36-61.04c-.44-1.01,.03-2.19,1.04-2.63,.25-.11,.52-.16,.79-.16h10.96c.81,0,1.54,.49,1.85,1.24l18.87,45.95,16.16-45.85c.28-.8,1.04-1.34,1.89-1.34Z"/></g></g><g><rect class="cls-1" x="0" y="0" width="200" height="200" rx="100" ry="100"/><path class="cls-2" d="M107.58,106.19V42.22c0-1.1-.89-1.99-1.99-1.99h-10.95c-.77,0-1.47,.46-1.8,1.16-2.67,5.48-7.09,9.9-12.57,12.57-.7,.33-1.15,1.03-1.15,1.8v11c0,1.1,.89,1.99,1.98,1.99h11.32v37.44c-11.41,3.29-19.75,13.79-19.75,26.25,0,15.09,12.24,27.33,27.33,27.33s27.32-12.24,27.32-27.33c0-12.45-8.34-22.96-19.74-26.25Zm-7.58,39.47c-7.31,0-13.22-5.92-13.22-13.22s5.91-13.22,13.22-13.22,13.22,5.92,13.22,13.22-5.92,13.22-13.22,13.22Z"/><path class="cls-2" d="M107.58,106.19V42.22c0-1.1-.89-1.99-1.99-1.99h-10.95c-.77,0-1.47,.46-1.8,1.16-2.67,5.48-7.09,9.9-12.57,12.57-.7,.33-1.15,1.03-1.15,1.8v11c0,1.1,.89,1.99,1.98,1.99h11.32v37.44c-11.41,3.29-19.75,13.79-19.75,26.25,0,15.09,12.24,27.33,27.33,27.33s27.32-12.24,27.32-27.33c0-12.45-8.34-22.96-19.74-26.25Zm-7.58,39.47c-7.31,0-13.22-5.92-13.22-13.22s5.91-13.22,13.22-13.22,13.22,5.92,13.22,13.22-5.92,13.22-13.22,13.22Z"/><path class="cls-4" d="M195.59,129.43c-4.84,15.78-13.49,29.89-24.88,41.28-12.29,12.29-27.77,21.4-45.08,25.97l-44.24-44.24c4.87,4.55,11.42,7.33,18.61,7.33,15.09,0,27.32-12.24,27.32-27.33,0-12.45-8.34-22.96-19.74-26.25V42.22c0-.44-.14-.86-.39-1.19l88.4,88.4Zm-95.59,16.23c7.3,0,13.22-5.92,13.22-13.22s-5.92-13.22-13.22-13.22-13.22,5.92-13.22,13.22,5.91,13.22,13.22,13.22Z"/></g></svg>
