<svg width="549" height="150" viewBox="0 0 549 150" fill="none" xmlns="http://www.w3.org/2000/svg">
<g clip-path="url(#clip0_2_117)">
<g clip-path="url(#clip1_2_117)">
<path fill-rule="evenodd" clip-rule="evenodd" d="M48.2126 73.0418L101.668 3.00654C101.903 2.74215 102.053 2.41165 102.096 2.06313C102.138 1.7146 102.077 1.36007 101.914 1.04159C101.77 0.735132 101.535 0.470734 101.246 0.290463C100.956 0.104184 100.625 0.00803909 100.282 0.00203007C100.077 -0.00397897 99.8774 0.00203006 99.6786 0.0380843H99.5404L1.53092 15.3491C1.1995 15.4032 0.892188 15.5474 0.639103 15.7637C0.386019 15.98 0.193195 16.2625 0.0907564 16.5809C-0.0116819 16.8994 -0.0297592 17.2359 0.0485759 17.5604C0.126911 17.8849 0.289607 18.1853 0.524613 18.4197L0.633077 18.5219C0.675257 18.5579 0.717438 18.6 0.753593 18.6481L14.0766 33.6526C14.1791 33.7667 14.2935 33.8689 14.4201 33.9651C14.9262 34.3076 15.4986 34.5299 16.1073 34.608C16.7098 34.6862 17.3305 34.6201 17.9029 34.4158L70.7611 15.3671C70.8214 15.3491 70.8817 15.3431 70.9419 15.3491C71.0022 15.3491 71.0624 15.3731 71.1166 15.4032C71.1709 15.4332 71.2191 15.4693 71.2552 15.5174C71.2914 15.5654 71.3215 15.6195 71.3396 15.6796C71.3637 15.7757 71.3577 15.8779 71.3215 15.974C71.2854 16.0702 71.2191 16.1483 71.1347 16.2023L24.3987 41.4222C24.2059 41.5244 24.0553 41.6867 23.9709 41.885L14.9202 64.4189C14.7756 64.7794 14.7515 65.182 14.8479 65.5605C14.9503 65.9391 15.1673 66.2756 15.4746 66.516C15.7819 66.7563 16.1615 66.8946 16.5532 66.9066C16.9449 66.9186 17.3305 66.8044 17.6499 66.5821L32.7625 56.4989L45.3384 72.9156C45.6155 73.3122 46.0374 73.5766 46.5134 73.6607C46.9894 73.7446 47.4775 73.6367 47.8752 73.3603C47.9958 73.2761 48.1042 73.18 48.2066 73.0718V73.0478L48.2126 73.0418Z" fill="#222222"/>
<path fill-rule="evenodd" clip-rule="evenodd" d="M135.622 69.0817C135.622 69.6045 135.834 70.1032 136.201 70.4698C136.569 70.8363 137.075 71.0467 137.593 71.0467H147.524C148.048 71.0467 148.548 70.8363 148.916 70.4698C149.283 70.1032 149.494 69.5985 149.494 69.0817V46.4637H163.805C167.523 46.5058 171.168 45.4722 174.314 43.5012C177.442 41.5303 180.033 38.8142 181.865 35.6054C183.769 32.2644 184.751 28.4787 184.703 24.6329C184.745 20.7932 183.769 17.0074 181.865 13.6664C180.069 10.4636 177.466 7.78356 174.308 5.89676C171.162 3.92581 167.511 2.89826 163.799 2.94032H137.587C137.063 2.94032 136.563 3.14463 136.195 3.51719C135.828 3.88374 135.616 4.3885 135.616 4.90528V69.0817H135.622ZM169.62 28.8934C169 30.1072 168.095 31.1527 166.993 31.9519C166.005 32.6309 164.829 32.9975 163.63 32.9855H149.506V16.3825H163.63C164.854 16.3645 166.047 16.731 167.053 17.4161C168.15 18.1672 169.036 19.1827 169.632 20.3725C170.337 21.6524 170.692 23.0886 170.669 24.5428C170.692 26.057 170.331 27.5533 169.62 28.8934ZM223.249 69.3221C227.48 71.1008 232.035 71.9901 236.626 71.942C241.188 71.9961 245.713 71.1008 249.92 69.3221C253.951 67.6095 257.584 65.0857 260.591 61.9009C263.658 58.7101 266.051 54.9365 267.617 50.8022C269.328 46.3916 270.19 41.6986 270.148 36.9755C270.203 32.2704 269.341 27.6014 267.617 23.2148C266.063 19.0505 263.671 15.2408 260.591 12.026C257.59 8.84115 253.957 6.31139 249.92 4.60482C245.72 2.82615 241.194 1.93081 236.626 1.98489C232.035 1.93681 227.48 2.82615 223.249 4.60482C219.237 6.34744 215.609 8.87122 212.584 12.026C209.535 15.2408 207.142 19.0265 205.558 23.1607C203.901 27.5774 203.075 32.2644 203.129 36.9755C203.081 41.7226 203.907 46.4337 205.552 50.8864V50.9164C207.173 55.0146 209.553 58.7702 212.566 61.9911C215.609 65.1097 219.242 67.5975 223.249 69.3221ZM244.4 56.8293C241.972 57.8929 239.344 58.4277 236.693 58.3977C234 58.4277 231.324 57.8929 228.847 56.8233C226.521 55.7777 224.43 54.2815 222.683 52.4247C220.912 50.4537 219.55 48.1523 218.676 45.6585C217.688 42.8704 217.199 39.9319 217.23 36.9694C217.188 34.013 217.676 31.0806 218.67 28.2984C219.544 25.8047 220.906 23.5032 222.677 21.5383C225.425 18.69 228.974 16.7371 232.861 15.9498C236.748 15.1627 240.778 15.5773 244.424 17.1336C246.744 18.1612 248.817 19.6815 250.486 21.5863C252.288 23.5633 253.668 25.8828 254.559 28.4006C255.596 31.1166 256.114 34.007 256.084 36.9154C256.114 39.8718 255.596 42.8042 254.559 45.5684C253.65 48.0622 252.288 50.3696 250.534 52.3706C248.823 54.2695 246.732 55.7897 244.4 56.8233V56.8293ZM304.965 70.4999C308.316 71.4973 311.798 71.9901 315.293 71.9601C320.343 71.9601 324.814 71.1368 328.623 69.4002C332.274 67.7477 335.371 65.0737 337.546 61.7086C339.71 58.1993 340.812 54.1373 340.728 50.021C340.74 47.5814 340.162 45.1718 339.047 42.9965C337.926 40.7672 336.347 38.8022 334.407 37.2339C332.226 35.4732 329.785 34.0431 327.182 32.9975C324.163 31.6995 321.024 30.708 317.806 30.035C315.818 29.6505 313.86 29.1277 311.937 28.4667C310.665 28.004 309.46 27.373 308.358 26.5859C307.671 25.997 307.105 25.2759 306.695 24.4707C306.315 23.5994 306.122 22.6559 306.134 21.7065C306.092 20.4927 306.471 19.2969 307.201 18.3175C308.098 17.1997 309.28 16.3345 310.623 15.8237C312.377 15.1507 314.245 14.8202 316.119 14.8682C317.884 14.8562 319.632 15.1807 321.277 15.8297H321.331C322.964 16.4366 324.458 17.362 325.73 18.5458C327.206 19.8737 328.472 21.4181 329.484 23.1307C329.755 23.5753 330.195 23.8938 330.701 24.014C331.207 24.1342 331.744 24.0561 332.189 23.7856C332.322 23.7015 332.443 23.6054 332.557 23.4972L339.547 16.6049C339.855 16.2984 340.053 15.9018 340.113 15.4691C340.174 15.0365 340.084 14.6038 339.867 14.2253C338.384 11.6234 336.408 9.34596 334.04 7.50717C331.66 5.62636 328.942 4.21424 326.037 3.33692C322.898 2.3935 319.626 1.93081 316.348 1.96085C313.166 1.93081 310.003 2.42955 306.984 3.43306C304.176 4.30437 301.561 5.69847 299.271 7.54321C297.132 9.26786 295.372 11.4071 294.089 13.8347V13.8767C292.841 16.3705 292.203 19.1226 292.221 21.9108C292.185 24.5909 292.624 27.2528 293.534 29.7706C294.45 32.1322 295.854 34.2714 297.662 36.0561C299.614 37.9609 301.904 39.4992 304.411 40.5809C307.345 41.8548 310.413 42.7982 313.558 43.3991H313.612C315.384 43.6996 317.125 44.1382 318.83 44.7091H318.897C320.193 45.0936 321.446 45.6164 322.627 46.2774C323.537 46.7462 324.362 47.3591 325.079 48.0921L325.134 48.1523C325.712 48.7051 326.158 49.3721 326.447 50.1172C326.736 50.8924 326.881 51.7156 326.875 52.5388C326.887 53.6926 326.465 54.8103 325.694 55.6636C324.681 56.7872 323.404 57.6345 321.976 58.1393C320.174 58.8003 318.264 59.1308 316.342 59.1007C313.251 59.1908 310.195 58.4337 307.514 56.9074C305.098 55.4592 302.404 52.7492 299.47 48.5669C299.319 48.3566 299.132 48.1763 298.915 48.0381C298.698 47.8999 298.451 47.8037 298.198 47.7617C297.945 47.7196 297.68 47.7196 297.427 47.7797C297.174 47.8338 296.933 47.942 296.722 48.0862C296.589 48.1763 296.475 48.2845 296.366 48.4046L289.557 56.1984C289.268 56.5288 289.099 56.9435 289.076 57.3821C289.051 57.8208 289.172 58.2534 289.418 58.614C291.317 61.4022 293.618 63.8959 296.252 66.0051H296.3C298.909 67.9941 301.844 69.5144 304.971 70.5059L304.965 70.4999ZM376.883 69.0757C376.883 69.5985 377.088 70.0973 377.462 70.4638C377.829 70.8304 378.335 71.0406 378.854 71.0406H388.784C389.308 71.0406 389.809 70.8304 390.176 70.4638C390.543 70.0973 390.754 69.5925 390.754 69.0757V16.3825H407.361C407.886 16.3825 408.386 16.1782 408.753 15.8056C409.121 15.4391 409.332 14.9343 409.332 14.4176V4.88124C409.332 4.35845 409.127 3.8597 408.753 3.49315C408.386 3.1266 407.88 2.91629 407.361 2.91629H360.854C360.33 2.91629 359.83 3.12059 359.462 3.49315C359.095 3.8597 358.884 4.36446 358.884 4.88124V14.4176C358.884 14.9404 359.089 15.4391 359.462 15.8056C359.83 16.1722 360.336 16.3825 360.854 16.3825H376.913L376.883 69.0817V69.0757ZM420.281 68.3606C420.166 68.6551 420.124 68.9796 420.16 69.298C420.196 69.6166 420.311 69.917 420.491 70.1813C420.672 70.4458 420.913 70.6621 421.197 70.8063C421.48 70.9565 421.793 71.0347 422.112 71.0347H432.23C432.628 71.0347 433.019 70.9145 433.35 70.6921C433.682 70.4638 433.935 70.1453 434.074 69.7728L439.69 55.0867H463.907L469.493 69.7848C469.638 70.1573 469.885 70.4758 470.216 70.7041C470.542 70.9325 470.933 71.0527 471.331 71.0527H481.906C482.431 71.0527 482.931 70.8424 483.298 70.4758C483.666 70.1093 483.877 69.6045 483.877 69.0877C483.877 68.8474 483.835 68.607 483.744 68.3787L458.99 4.16616C458.846 3.7936 458.592 3.47512 458.267 3.24678C457.936 3.01844 457.544 2.89826 457.146 2.90427H447.029C446.631 2.90427 446.245 3.03045 445.914 3.25279C445.589 3.48114 445.336 3.79961 445.197 4.16616L420.275 68.3667L420.281 68.3606ZM454.803 31.1046L458.797 41.5844H444.818L448.698 31.4111V31.363C449.066 30.3295 449.524 29.0496 450.078 27.5233C450.638 25.9189 451.187 24.2484 451.747 22.4456L451.82 22.2293L451.868 22.3615C452.525 24.3686 453.109 26.1772 453.597 27.8057V27.8658C454.152 29.4581 454.555 30.5638 454.808 31.1046H454.803ZM505.082 69.0997C505.082 69.6225 505.286 70.1213 505.66 70.4878C506.027 70.8544 506.533 71.0647 507.052 71.0647H547.129C547.654 71.0647 548.154 70.8604 548.521 70.4878C548.888 70.1213 549.1 69.6166 549.1 69.0997V59.5334C549.1 59.0106 548.895 58.5118 548.521 58.1453C548.154 57.7787 547.648 57.5685 547.129 57.5685H518.934V4.88124C518.934 4.35845 518.73 3.8597 518.357 3.49315C517.989 3.1266 517.482 2.91629 516.964 2.91629H507.034C506.51 2.91629 506.01 3.12059 505.642 3.49315C505.274 3.8597 505.063 4.36446 505.063 4.88124L505.087 69.1117L505.082 69.0997Z" fill="#222222"/>
</g>
<path d="M239.286 112.288L227.818 95H234.458L242.132 107.848L249.892 95H256.186L244.718 112.288V125.524H239.286V112.288Z" fill="black"/>
<path d="M204 95H215.899C217.049 95 218.184 95.1437 219.305 95.4311C220.426 95.6898 221.418 96.1353 222.28 96.7676C223.171 97.3712 223.889 98.1616 224.436 99.1388C224.982 100.116 225.255 101.294 225.255 102.674C225.255 104.399 224.766 105.821 223.789 106.942C222.812 108.063 221.533 108.868 219.952 109.357V109.443C221.877 109.701 223.458 110.449 224.694 111.685C225.93 112.921 226.548 114.573 226.548 116.643C226.548 118.31 226.218 119.718 225.556 120.868C224.895 121.989 224.019 122.894 222.927 123.584C221.863 124.274 220.627 124.777 219.219 125.093C217.839 125.38 216.431 125.524 214.994 125.524H204V95ZM209.432 107.417H214.261C216.072 107.417 217.451 107.057 218.4 106.339C219.348 105.62 219.822 104.6 219.822 103.278C219.822 101.898 219.334 100.921 218.357 100.346C217.379 99.7712 215.856 99.4837 213.787 99.4837H209.432V107.417ZM209.432 120.954H214.304C214.994 120.954 215.741 120.911 216.546 120.825C217.351 120.71 218.084 120.494 218.745 120.178C219.434 119.862 219.995 119.402 220.426 118.798C220.886 118.195 221.116 117.39 221.116 116.384C221.116 114.774 220.57 113.654 219.478 113.021C218.385 112.389 216.733 112.073 214.52 112.073H209.432V120.954Z" fill="black"/>
<g clip-path="url(#clip2_2_117)">
<path d="M325.966 125.643L314.588 125.572C315.828 122.572 318.234 120.143 321.954 120.143C324.58 120.143 326.038 121.929 326.038 124.286C326.038 124.786 325.966 125.643 325.966 125.643ZM322.173 110.643C309.409 110.572 299.855 120.5 299.782 133.643C299.782 142.572 306.273 150.214 319.474 150.286C328.227 150.286 335.082 145.429 335.082 145.429L331.8 135.929C331.8 135.929 325.966 139.714 320.277 139.714C315.463 139.714 312.691 137.214 312.691 132.929L337.052 133C337.927 130.643 338.364 128.143 338.51 125.572C338.656 116.786 333.113 110.714 322.173 110.643Z" fill="#F37021"/>
<path d="M369.799 110.857C364.475 110.857 359.078 114 356.89 117.357H356.744C357.109 116.143 357.473 114.857 357.765 113.643L358.13 111.714L345.585 111.643L337.927 149.5L350.909 149.571L354.264 132.857C355.358 127.357 359.734 122.429 364.84 122.429C367.174 122.429 368.268 123.429 368.268 125.643C368.268 126.357 368.195 127.143 368.049 127.857L363.6 149.571L376.582 149.643L381.396 125.857C381.688 124.5 381.906 123.071 381.906 121.643C381.906 113.714 376.436 110.857 369.799 110.857Z" fill="#F37021"/>
<path d="M402.474 140.071C398.754 140.071 396.42 137.5 396.42 133.357C396.42 125.929 401.745 121.714 406.121 121.714C410.351 121.714 412.101 124.857 412.101 128.429C412.101 135.5 406.631 140.071 402.474 140.071ZM418.301 97.1428L415.165 112.643C415.019 113.357 414.946 114.357 414.946 114.357H414.8C412.612 111.786 408.309 110.929 405.027 110.929C393.576 110.929 383.292 120.214 383.219 134.214C383.219 144.071 388.689 150.5 398.171 150.5C402.547 150.5 406.704 148.5 409.33 145H409.476C409.476 145 409.257 145.929 409.038 147.143L408.528 149.643L420.708 149.714L431.356 97.2143L418.301 97.1428Z" fill="#F37021"/>
<path d="M448.277 140.143C444.12 140.143 441.13 137.571 441.202 133.143C441.202 126.214 446.964 121.714 452.07 121.714C456.154 121.714 459.144 124.428 459.071 128.928C458.999 135.857 453.455 140.143 448.277 140.143ZM452.143 111.143C440.035 111.071 428.001 120.428 428.001 133.714C428.001 144.071 436.316 150.714 447.985 150.786C460.02 150.857 472.127 141.643 472.127 128.214C472.2 117.857 463.812 111.143 452.143 111.143Z" fill="#F37021"/>
<path d="M487.224 123.5C487.224 122.071 489.558 121.5 491.454 121.5C497.216 121.5 500.425 124.286 500.425 124.286L506.041 115.643C506.041 115.643 500.79 111.286 491.527 111.286C483.286 111.286 475.263 116.143 475.263 123.5C475.19 134.643 490.506 135.286 490.506 138.714C490.506 140.071 488.318 140.643 486.276 140.643C482.702 140.571 479.274 139.357 476.503 137.214L470.012 145.357C474.679 148.857 480.368 150.857 486.203 150.929C495.904 150.929 502.541 146.143 502.541 138.786C502.613 127.286 487.224 126.429 487.224 123.5Z" fill="#F37021"/>
<path d="M525.077 140.429C520.92 140.429 517.93 137.857 518.003 133.429C518.003 126.5 523.765 122 528.87 122C532.954 122 535.945 124.714 535.872 129.214C535.872 136.071 530.256 140.429 525.077 140.429ZM529.016 111.357C516.909 111.286 504.874 120.643 504.874 133.929C504.802 144.286 513.189 150.929 524.859 151C536.893 151.071 549 141.857 549 128.429C549.073 118.143 540.685 111.429 529.016 111.357Z" fill="#F37021"/>
<path d="M320.35 101.071L304.742 87L303.21 94.5L282.351 94.4286C272.213 94.4286 261.418 100.429 261.345 111.714C261.418 121.357 269.514 125.571 275.422 128.643C278.704 130.357 281.548 131.857 281.548 133.571C281.548 137.5 276.005 137.5 275.786 137.5L257.844 137.429L255 150.929L275.568 151C287.31 151 296.5 143.429 296.5 133.643C296.573 123.929 288.477 119.857 282.569 116.857C279.141 115.143 276.224 113.643 276.224 111.857C276.224 108.929 280.235 108 282.132 108L300.511 108.071L299.053 115.357L320.35 101.071Z" fill="#F37021"/>
</g>
</g>
<defs>
<clipPath id="clip0_2_117">
<rect width="549" height="150" fill="white"/>
</clipPath>
<clipPath id="clip1_2_117">
<rect width="549.739" height="74.4211" fill="white"/>
</clipPath>
<clipPath id="clip2_2_117">
<rect width="294" height="64" fill="white" transform="translate(255 87)"/>
</clipPath>
</defs>
</svg>
