<?xml version="1.0" encoding="UTF-8"?>
<svg xmlns="http://www.w3.org/2000/svg" xmlns:xlink="http://www.w3.org/1999/xlink" width="256px" height="256px" viewBox="0 0 256 256" version="1.1">
<g id="surface1">
<path style=" stroke:none;fill-rule:nonzero;fill:rgb(100%,100%,100%);fill-opacity:1;" d="M 29.539062 0 L 226.460938 0 C 242.773438 0 256 13.484375 256 30.117188 L 256 225.882812 C 256 242.515625 242.773438 256 226.460938 256 L 29.539062 256 C 13.226562 256 0 242.515625 0 225.882812 L 0 30.117188 C 0 13.484375 13.226562 0 29.539062 0 Z M 29.539062 0 "/>
<path style=" stroke:none;fill-rule:nonzero;fill:rgb(16.470589%,19.607843%,32.156864%);fill-opacity:1;" d="M 196.921875 127.738281 L 196.921875 171.710938 C 196.921875 176.335938 195.300781 180.769531 192.410156 184.039062 C 189.519531 187.308594 185.597656 189.144531 181.507812 189.144531 L 91.828125 189.144531 L 115.324219 162.746094 L 163.074219 162.746094 C 170.429688 162.746094 173.84375 155.914062 173.84375 147.609375 L 173.84375 127.738281 Z M 196.921875 127.738281 "/>
<path style=" stroke:none;fill-rule:nonzero;fill:rgb(16.470589%,19.607843%,32.156864%);fill-opacity:1;" d="M 181.507812 50.195312 L 74.492188 50.195312 C 70.402344 50.195312 66.480469 52.03125 63.589844 55.300781 C 60.699219 58.570312 59.078125 63.003906 59.078125 67.628906 L 59.078125 119.363281 L 82.015625 119.363281 L 82.015625 88.089844 C 82.015625 84.960938 83.113281 81.960938 85.070312 79.746094 C 87.027344 77.535156 89.679688 76.292969 92.445312 76.292969 L 163.402344 76.292969 C 166.171875 76.292969 168.824219 77.535156 170.78125 79.746094 C 172.738281 81.960938 173.835938 84.960938 173.835938 88.089844 L 173.835938 93.371094 L 196.90625 93.371094 L 196.90625 67.628906 C 196.90625 63.007812 195.285156 58.574219 192.398438 55.308594 C 189.507812 52.039062 185.59375 50.199219 181.507812 50.195312 Z M 181.507812 50.195312 "/>
<path style=" stroke:none;fill-rule:nonzero;fill:rgb(3.137255%,47.450981%,77.64706%);fill-opacity:1;" d="M 162.757812 93.527344 L 64.894531 204.695312 C 64.4375 205.226562 63.847656 205.589844 63.203125 205.734375 C 62.558594 205.878906 61.890625 205.796875 61.285156 205.503906 C 60.683594 205.210938 60.171875 204.714844 59.824219 204.085938 C 59.476562 203.457031 59.300781 202.722656 59.328125 201.984375 L 59.078125 129.9375 L 81.925781 129.9375 L 81.925781 148.128906 L 130.28125 93.558594 Z M 162.757812 93.527344 "/>
</g>
</svg>
