<svg xmlns="http://www.w3.org/2000/svg" width="125" height="20" viewBox="0 0 125 20" fill="none"><path d="M42.0596 15.0675C42.0596 15.0675 43.8176 17 46.9929 17C50.036 17 51.7561 15.0485 51.7561 12.7945C51.7561 8.51301 45.6699 8.816 45.6699 7.111C45.6699 6.353 46.4257 6.05001 47.1062 6.05001C48.732 6.05001 50.0929 7.2435 50.0929 7.2435L51.4917 4.5345C51.4917 4.5345 50.055 3 47.1441 3C44.4602 3 42.3619 4.648 42.3619 7.14901C42.3619 11.3165 48.4486 11.26 48.4486 12.87C48.4486 13.6845 47.7113 13.95 47.0308 13.95C45.3297 13.95 43.7987 12.548 43.7987 12.548L42.0596 15.0675ZM53.552 16.7725H62.2842V13.931H56.8595V11.3735H60.9802V8.532H56.8595V6.069H62.0198V3.2275H53.552V16.7725ZM93.1507 16.7725H101.978V13.931H96.4587V3.2275H93.1507V16.7725ZM81.1669 16.7725H86.1381C88.8225 16.7725 91.2795 15.693 91.2795 12.7375C91.2795 11.544 90.7122 10.161 89.1628 9.6875C90.1834 9.10001 90.7312 7.9065 90.7312 6.77C90.7312 4.44 88.841 3.2275 86.1381 3.2275H81.1669V16.7725ZM64.3446 16.7725H67.6715L68.0871 10.6725C68.1629 9.64951 68.0871 8.39901 68.0871 8.39901C68.0871 8.39901 68.5785 9.82001 68.8813 10.6725L70.2986 14.594H73.1341L74.5514 10.6725C74.8542 9.82001 75.3077 8.39901 75.3077 8.39901C75.3077 8.39901 75.2698 9.64951 75.3456 10.6725L75.7612 16.7725H79.0692L77.9726 3.2275H74.3813L72.4158 8.94851C72.1135 9.82001 71.7353 11.184 71.7353 11.184C71.7353 11.184 71.3193 9.82001 71.0169 8.94851L69.0514 3.2275H65.46L64.3446 16.7725ZM105.172 16.7725H108.48V11.222L112.941 3.2275H109.179L107.667 6.486C107.232 7.414 106.855 8.437 106.855 8.437C106.855 8.437 106.439 7.414 106.004 6.486L104.473 3.2275H100.712L105.172 11.222V16.7725ZM84.4749 13.931V11.127H86.4784C87.4427 11.127 87.8961 11.7525 87.8961 12.51C87.8961 13.268 87.4237 13.931 86.4594 13.931H84.4749ZM84.4749 8.475V6.069H86.1192C87.0077 6.069 87.3668 6.59951 87.3668 7.22451C87.3668 7.86851 87.0076 8.475 86.176 8.475H84.4749ZM121.255 7.544H122.665L120.015 0H118.584L115.934 7.544H117.344L117.98 5.61H120.619L121.255 7.544ZM123.628 7.544H125V0H123.628V7.544ZM119.316 1.307C119.316 1.307 119.475 2.0505 119.613 2.4755L120.28 4.4945H118.309L118.977 2.4755C119.125 2.0505 119.316 1.307 119.316 1.307Z" fill="black"></path><path d="M26.0958 10.77C24.2749 10.77 22.2595 13.46 20.723 13.46C19.1865 13.46 17.1711 10.77 15.3502 10.77C12.806 10.77 10.7456 12.835 10.7456 15.385C10.7456 17.935 12.806 20 15.3502 20C17.1711 20 19.1865 17.31 20.723 17.31C22.2595 17.31 24.2749 20 26.0958 20C28.64 20 30.7004 17.935 30.7004 15.385C30.7004 12.835 28.64 10.77 26.0958 10.77Z" fill="#6666CD"></path><path d="M4.60456 20C7.14758 20 9.20911 17.9338 9.20911 15.385C9.20911 12.8362 7.14758 10.77 4.60456 10.77C2.06153 10.77 0 12.8362 0 15.385C0 17.9338 2.06153 20 4.60456 20Z" fill="#FF5500"></path><path d="M31.4686 2.69617e-06C29.6478 2.69617e-06 27.6323 2.69 26.0958 2.69C24.5593 2.69 22.5439 2.69617e-06 20.723 2.69617e-06C18.1788 2.69617e-06 16.1184 2.065 16.1184 4.61501C16.1184 7.16501 18.1788 9.23001 20.723 9.23001C22.5439 9.23001 24.5593 6.54001 26.0958 6.54001C27.6323 6.54001 29.6478 9.23001 31.4686 9.23001C34.0129 9.23001 36.0732 7.16501 36.0732 4.61501C36.0732 2.065 34.0079 2.69617e-06 31.4686 2.69617e-06Z" fill="#00BFBF"></path><path d="M9.97736 9.23001C12.5204 9.23001 14.5819 7.1638 14.5819 4.61501C14.5819 2.06621 12.5204 2.69617e-06 9.97736 2.69617e-06C7.43434 2.69617e-06 5.37281 2.06621 5.37281 4.61501C5.37281 7.1638 7.43434 9.23001 9.97736 9.23001Z" fill="#FFBF00"></path></svg>